HIERARCHY
ROOT Hips
{
	OFFSET 0.00000 0.00000 0.00000
	CHANNELS 6 Xposition Yposition Zposition Zrotation Yrotation Xrotation 
	JOINT LHipJoint
	{
		OFFSET 0 0 0
		CHANNELS 3 Zrotation Yrotation Xrotation
		JOINT LeftUpLeg
		{
			OFFSET 1.37959 -1.78713 0.86582
			CHANNELS 3 Zrotation Yrotation Xrotation
			JOINT LeftLeg
			{
				OFFSET 2.54611 -6.99539 0.00000
				CHANNELS 3 Zrotation Yrotation Xrotation
				JOINT LeftFoot
				{
					OFFSET 2.59951 -7.14211 0.00000
					CHANNELS 3 Zrotation Yrotation Xrotation
					JOINT LeftToeBase
					{
						OFFSET 0.18493 -0.50810 1.96120
						CHANNELS 3 Zrotation Yrotation Xrotation
						End Site
						{
							OFFSET 0.00000 -0.00000 1.02054
						}
					}
				}
			}
		}
	}
	JOINT RHipJoint
	{
		OFFSET 0 0 0
		CHANNELS 3 Zrotation Yrotation Xrotation
		JOINT RightUpLeg
		{
			OFFSET -1.33564 -1.78713 0.86582
			CHANNELS 3 Zrotation Yrotation Xrotation
			JOINT RightLeg
			{
				OFFSET -2.52705 -6.94302 0.00000
				CHANNELS 3 Zrotation Yrotation Xrotation
				JOINT RightFoot
				{
					OFFSET -2.55964 -7.03257 0.00000
					CHANNELS 3 Zrotation Yrotation Xrotation
					JOINT RightToeBase
					{
						OFFSET -0.25804 -0.70896 2.12109
						CHANNELS 3 Zrotation Yrotation Xrotation
						End Site
						{
							OFFSET -0.00000 -0.00000 1.11821
						}
					}
				}
			}
		}
	}
	JOINT LowerBack
	{
		OFFSET 0 0 0
		CHANNELS 3 Zrotation Yrotation Xrotation
		JOINT Spine
		{
			OFFSET -0.02031 2.24248 -0.18900
			CHANNELS 3 Zrotation Yrotation Xrotation
			JOINT Spine1
			{
				OFFSET 0.08342 2.24689 -0.03799
				CHANNELS 3 Zrotation Yrotation Xrotation
				JOINT Neck
				{
					OFFSET 0 0 0
					CHANNELS 3 Zrotation Yrotation Xrotation
					JOINT Neck1
					{
						OFFSET -0.11607 1.55844 0.24628
						CHANNELS 3 Zrotation Yrotation Xrotation
						JOINT Head
						{
							OFFSET 0.06877 1.60174 -0.17013
							CHANNELS 3 Zrotation Yrotation Xrotation
							End Site
							{
								OFFSET 0.03358 1.61266 -0.08543
							}
						}
					}
				}
				JOINT LeftShoulder
				{
					OFFSET 0 0 0
					CHANNELS 3 Zrotation Yrotation Xrotation
					JOINT LeftArm
					{
						OFFSET 3.47537 0.55866 -0.72348
						CHANNELS 3 Zrotation Yrotation Xrotation
						JOINT LeftForeArm
						{
							OFFSET 5.38154 -0.00000 0.00000
							CHANNELS 3 Zrotation Yrotation Xrotation
							JOINT LeftHand
							{
								OFFSET 3.33312 -0.00000 0.00000
								CHANNELS 3 Zrotation Yrotation Xrotation
								JOINT LeftFingerBase
								{
									OFFSET 0 0 0
									CHANNELS 3 Zrotation Yrotation Xrotation
									JOINT LeftHandIndex1
									{
										OFFSET 0.71079 -0.00000 0.00000
										CHANNELS 3 Zrotation Yrotation Xrotation
										End Site
										{
											OFFSET 0.57306 -0.00000 0.00000
										}
									}
								}
								JOINT LThumb
								{
									OFFSET 0 0 0
									CHANNELS 3 Zrotation Yrotation Xrotation
									End Site
									{
										OFFSET 0.58181 -0.00000 0.58181
									}
								}
							}
						}
					}
				}
				JOINT RightShoulder
				{
					OFFSET 0 0 0
					CHANNELS 3 Zrotation Yrotation Xrotation
					JOINT RightArm
					{
						OFFSET -3.27844 0.90739 -0.35708
						CHANNELS 3 Zrotation Yrotation Xrotation
						JOINT RightForeArm
						{
							OFFSET -5.16954 -0.00000 0.00000
							CHANNELS 3 Zrotation Yrotation Xrotation
							JOINT RightHand
							{
								OFFSET -3.38287 -0.00000 0.00000
								CHANNELS 3 Zrotation Yrotation Xrotation
								JOINT RightFingerBase
								{
									OFFSET 0 0 0
									CHANNELS 3 Zrotation Yrotation Xrotation
									JOINT RightHandIndex1
									{
										OFFSET -0.81797 -0.00000 0.00000
										CHANNELS 3 Zrotation Yrotation Xrotation
										End Site
										{
											OFFSET -0.65947 -0.00000 0.00000
										}
									}
								}
								JOINT RThumb
								{
									OFFSET 0 0 0
									CHANNELS 3 Zrotation Yrotation Xrotation
									End Site
									{
										OFFSET -0.66953 -0.00000 0.66953
									}
								}
							}
						}
					}
				}
			}
		}
	}
}
MOTION
Frames: 7
Frame Time: .0083333
3.806900 18.079000 21.223000 -179.262000 5.333700 -176.392000 0.000000 0.000000 0.000000 -20.719100 -4.722700 -22.280500 1.835100 8.513800 24.285800 -0.055200 -7.467400 -3.883700 0.000700 -0.170200 -0.467600 0.000000 0.000000 0.000000 21.358600 2.823000 -4.030800 -7.705300 -15.898200 51.494100 -1.576600 -9.390400 22.517600 -0.699800 -5.347200 14.901500 -0.723800 0.885500 1.136800 2.259200 1.226800 0.978500 2.711500 0.627000 0.300800 -10.420800 -3.571800 -17.907500 4.299600 -2.609100 21.306900 2.910000 -1.403900 9.957100 -0.000000 -0.000000 0.000000 -92.684100 4.020100 13.395300 13.253600 -21.657600 -2.546100 -0.000000 -0.000000 13.697100 -2.842500 37.043100 -1.713200 -7.125000 0.000000 -0.000000 -43.637400 61.492500 -19.544800 -0.000000 -0.000000 0.000000 87.243000 -3.342700 19.302800 -16.017800 25.544700 -3.653600 0.000000 -0.000000 -11.334400 -13.933000 16.238600 -3.968500 7.125000 -0.000000 -0.000000 9.225400 -13.432000 6.922300
3.798300 18.092700 21.076200 -180.262000 5.396400 -176.560000 0.000000 0.000000 0.000000 -22.003100 -4.502800 -21.386100 1.767600 8.364300 23.826100 -0.044500 -7.548400 -4.234900 0.000300 0.105900 0.290900 0.000000 0.000000 0.000000 19.974600 3.274000 -5.837200 -8.455800 -16.444500 54.188300 -1.810700 -11.184300 24.246600 -0.515400 -4.601300 12.774800 -1.852800 0.891100 1.259200 2.080300 1.210900 1.003900 3.161500 0.608600 0.240500 -10.287300 -3.542700 -17.764500 4.081000 -2.573900 21.114600 2.812300 -1.401800 9.854500 -0.000000 -0.000000 0.000000 -92.533800 4.014600 14.278900 13.486700 -21.996200 -2.632800 -0.000000 -0.000000 13.324900 -2.961700 37.278100 -1.794800 -7.125000 0.000000 -0.000000 -44.041700 61.634300 -19.915000 -0.000000 -0.000000 0.000000 87.067000 -3.352600 19.301600 -15.921400 25.414000 -3.612200 0.000000 -0.000000 -11.078800 -12.945000 13.543300 -3.081200 7.125000 -0.000000 -0.000000 9.898800 -16.229900 6.841700
3.789100 18.106500 20.918200 -180.553000 4.873500 -176.844000 0.000000 0.000000 0.000000 -22.549000 -4.304400 -20.262200 1.700800 8.212900 23.362700 -0.054100 -8.023900 -4.409800 0.000200 -0.096900 -0.266100 0.000000 0.000000 0.000000 19.498400 3.045300 -7.489500 -9.154400 -16.906000 56.622500 -1.964900 -11.372400 25.257100 -0.162500 -2.597000 7.158600 -2.086500 0.721300 1.403900 2.023600 0.979400 1.080600 3.236500 0.490400 0.251200 -10.046700 -3.505400 -17.537500 3.753100 -2.531900 20.979500 2.661400 -1.398400 9.753700 0.000000 0.000000 0.000000 -92.284600 4.013300 14.947400 13.677200 -22.271400 -2.704600 -0.000000 -0.000000 13.201600 -3.124300 37.022600 -1.882400 -7.125000 0.000000 -0.000000 -43.876400 61.406500 -19.586300 0.000000 0.000000 0.000000 87.118400 -3.390500 19.164600 -15.823800 25.281100 -3.570400 0.000000 -0.000000 -10.670400 -11.240700 13.500600 -2.656500 7.125000 -0.000000 -0.000000 11.063700 -16.387200 7.638100
3.775000 18.114600 20.768200 -180.514000 5.149400 -176.762000 0.000000 0.000000 0.000000 -22.693300 -3.764800 -19.721600 1.646800 8.087900 22.981500 -0.052200 -8.218000 -4.623500 0.001600 -0.262100 -0.720100 0.000000 0.000000 0.000000 19.283800 3.543600 -9.388500 -9.853200 -17.326500 58.996700 -1.974600 -9.848200 25.229500 -0.002700 -0.332500 0.913600 -1.950600 0.647700 1.343400 2.079000 0.884800 1.051000 3.218800 0.444300 0.262600 -10.305200 -3.376400 -17.686900 3.819400 -2.261300 21.259300 2.769300 -1.284400 9.865900 0.000000 0.000000 0.000000 -92.308500 3.956100 14.904500 13.842100 -22.508600 -2.767400 -0.000000 -0.000000 13.131200 -3.174800 36.773000 -1.901800 -7.125000 0.000000 -0.000000 -43.617700 61.210700 -19.241500 0.000000 0.000000 0.000000 87.025700 -3.396400 20.020300 -15.828100 25.287100 -3.572200 0.000000 -0.000000 -10.423100 -14.043700 18.610000 -4.564000 7.125000 -0.000000 -0.000000 9.189900 -11.026900 7.360200
3.769900 18.121800 20.609200 -180.881000 4.195800 -177.352000 0.000000 0.000000 0.000000 -23.274900 -3.913200 -18.186000 1.603500 7.986200 22.672200 -0.061500 -8.639000 -4.778300 0.000200 0.091400 0.251100 0.000000 0.000000 0.000000 18.748700 2.768200 -10.463100 -10.495000 -17.679000 61.130300 -1.668100 -9.718600 23.178000 -0.022100 -0.960200 2.639400 -2.198000 0.129200 2.157500 2.056800 0.180100 0.979600 3.342300 0.098800 -0.217400 -10.549600 -3.136400 -17.702100 3.960900 -1.866500 21.546700 2.921100 -1.102100 9.945100 0.000000 -0.000000 0.000000 -92.325700 4.260400 14.848500 14.045800 -22.800100 -2.845800 -0.000000 -0.000000 12.879000 -2.949000 36.800400 -1.767500 -7.125000 0.000000 -0.000000 -43.439100 61.287300 -19.224300 0.000000 -0.000000 0.000000 86.837100 -3.702500 20.816300 -15.902000 25.387500 -3.603800 0.000000 -0.000000 -10.062700 -16.421300 19.326400 -5.570900 7.125000 -0.000000 -0.000000 7.668700 -10.037900 6.272600
3.759600 18.126600 20.478000 -181.361000 4.076000 -177.053000 0.000000 0.000000 0.000000 -23.899200 -4.338900 -17.687200 1.555400 7.871100 22.323300 -0.037300 -8.377100 -5.092900 0.006000 0.502000 1.379400 0.000000 0.000000 0.000000 17.904800 3.020400 -12.656500 -11.169700 -18.017100 63.331400 -1.296900 -10.732800 20.601800 -0.307100 -3.562900 9.850100 -2.647700 0.070600 2.242500 1.925200 0.080300 0.768300 3.462700 0.050800 -0.474600 -10.244900 -3.066700 -17.657700 3.700600 -1.803000 21.433600 2.784700 -1.077500 9.885000 0.000000 0.000000 0.000000 -92.066000 4.284300 15.432300 14.278800 -23.131900 -2.936800 -0.000000 -0.000000 12.534000 -2.843800 37.028100 -1.713400 -7.125000 0.000000 -0.000000 -43.620100 61.481100 -19.523600 0.000000 0.000000 0.000000 86.863500 -3.803700 20.604400 -15.922800 25.415800 -3.612800 0.000000 -0.000000 -9.701800 -16.914500 20.202800 -5.995200 7.125000 -0.000000 -0.000000 7.391200 -9.082500 6.184800
3.759400 18.129900 20.347100 -181.857000 4.019800 -177.012000 0.000000 0.000000 0.000000 -24.566100 -4.027600 -17.075500 1.488900 7.708700 21.832800 -0.042100 -8.653000 -5.212000 0.009300 0.621300 1.707200 0.000000 0.000000 0.000000 17.201700 3.122000 -14.555000 -11.775400 -18.294100 65.275100 -0.926800 -10.146300 17.547800 -0.431100 -4.213400 11.677700 -3.279200 0.101500 2.398300 1.814700 0.096100 0.695600 3.705000 0.060200 -0.638300 -10.001700 -3.066900 -17.405200 3.543200 -1.864200 21.261000 2.678200 -1.102400 9.776600 -0.000000 0.000000 0.000000 -91.771500 4.212400 16.075200 14.509800 -23.458800 -3.028100 -0.000000 -0.000000 12.152600 -2.605000 37.223400 -1.576500 -7.125000 0.000000 -0.000000 -43.638300 61.684800 -19.744300 -0.000000 0.000000 0.000000 87.001200 -3.832500 19.991700 -15.855800 25.324700 -3.584100 0.000000 -0.000000 -9.531500 -16.926700 19.637700 -5.839800 7.125000 -0.000000 -0.000000 7.355700 -9.659100 6.068800
